<svg version="1.2" xmlns="http://www.w3.org/2000/svg" viewBox="0 0 400 112" width="400" height="112"><defs><linearGradient id="P" gradientUnits="userSpaceOnUse"/><linearGradient id="g1" x1="73.5" y1="53.6" x2="73.5" y2="112.3" href="#P"><stop stop-color="#fef9c5"/><stop offset=".52" stop-color="#f06392"/><stop offset="1" stop-color="#9b51a0"/></linearGradient><linearGradient id="g2" x1="74.5" y1="64.9" x2="74.5" y2="102.8" href="#P"><stop stop-color="#fef9c5"/><stop offset=".52" stop-color="#f06392"/><stop offset="1" stop-color="#9b51a0"/></linearGradient><linearGradient id="g3" x1="109.9" y1="61.9" x2="109.9" y2="101.7" href="#P"><stop stop-color="#fef9c5"/><stop offset=".52" stop-color="#f06392"/><stop offset="1" stop-color="#9b51a0"/></linearGradient><linearGradient id="g4" x1="86.5" y1="69.6" x2="86.5" y2="94" href="#P"><stop stop-color="#fef9c5"/><stop offset=".52" stop-color="#f06392"/><stop offset="1" stop-color="#9b51a0"/></linearGradient><linearGradient id="g5" x1="175.9" y1="53.6" x2="175.9" y2="112.3" href="#P"><stop stop-color="#fef9c5"/><stop offset=".52" stop-color="#f06392"/><stop offset="1" stop-color="#9b51a0"/></linearGradient><linearGradient id="g6" x1="180.7" y1="62.4" x2="180.7" y2="101.5" href="#P"><stop stop-color="#fef9c5"/><stop offset=".52" stop-color="#f06392"/><stop offset="1" stop-color="#9b51a0"/></linearGradient><linearGradient id="g7" x1="145.3" y1="60.5" x2="145.3" y2="101.2" href="#P"><stop stop-color="#fef9c5"/><stop offset=".52" stop-color="#f06392"/><stop offset="1" stop-color="#9b51a0"/></linearGradient><linearGradient id="g8" x1="246.7" y1="53.6" x2="246.7" y2="112.3" href="#P"><stop stop-color="#fef9c5"/><stop offset=".52" stop-color="#f06392"/><stop offset="1" stop-color="#9b51a0"/></linearGradient></defs><style>tspan{white-space:pre}.a{fill:url(#g1)}.b{fill:url(#g2)}.c{fill:url(#g3)}.d{fill:url(#g4)}.e{fill:url(#g5)}.f{fill:url(#g6)}.g{fill:url(#g7)}.h{fill:url(#g8)}.i{font-size: 63px;fill: #fafbfb;font-weight: 900;font-family: "Roboto-Black", "Roboto"}</style><path class="a" d="m95.4 47.7c-3.3 0-5.9-2.7-5.9-5.9 0-16.3-13.2-29.5-29.5-29.5-16.3 0-29.5 13.2-29.5 29.5 0 3.2-2.7 5.9-5.9 5.9-3.3 0-5.9-2.7-5.9-5.9 0-22.8 18.5-41.3 41.3-41.3 22.8 0 41.3 18.5 41.3 41.3 0 3.2-2.6 5.9-5.9 5.9z"/><path class="b" d="m6.9 101.2c-3.3 0-5.9-2.6-5.9-5.9v-28.1c0-3.3 2.6-5.9 5.9-5.9 3.2 0 5.9 2.6 5.9 5.9v28.1c0 3.3-2.7 5.9-5.9 5.9z"/><path class="c" d="m42.3 101.2c-3.3 0-5.9-2.6-5.9-5.9v-28.1c0-3.3 2.6-5.9 5.9-5.9 3.2 0 5.9 2.6 5.9 5.9v28.1c0 3.3-2.7 5.9-5.9 5.9z"/><path class="d" d="m60 93.8c-3.3 0-5.9-2.7-5.9-5.9v-13.2c0-3.3 2.6-5.9 5.9-5.9 3.3 0 5.9 2.6 5.9 5.9v13.2c0 3.2-2.6 5.9-5.9 5.9z"/><path class="e" d="m24.6 111.1c-3.3 0-5.9-2.6-5.9-5.9v-47.9c0-3.3 2.6-5.9 5.9-5.9 3.2 0 5.9 2.6 5.9 5.9v47.9c0 3.3-2.7 5.9-5.9 5.9z"/><path class="f" d="m113.1 101.2c-3.3 0-5.9-2.6-5.9-5.9v-28.1c0-3.3 2.6-5.9 5.9-5.9 3.3 0 5.9 2.6 5.9 5.9v28.1c0 3.3-2.6 5.9-5.9 5.9z"/><path class="g" d="m77.7 101.2c-3.3 0-5.9-2.6-5.9-5.9v-28.1c0-3.3 2.6-5.9 5.9-5.9 3.3 0 5.9 2.6 5.9 5.9v28.1c0 3.3-2.6 5.9-5.9 5.9z"/><path class="h" d="m95.4 111.1c-3.3 0-5.9-2.6-5.9-5.9v-47.9c0-3.3 2.6-5.9 5.9-5.9 3.3 0 5.9 2.6 5.9 5.9v47.9c0 3.3-2.6 5.9-5.9 5.9z"/><text style="transform:matrix(1,0,0,1,264.325,98.592)" ><tspan x="-137" y="0" class="i">T</tspan><tspan  y="0" class="i">u</tspan><tspan  y="0" class="i">n</tspan><tspan  y="0" class="i">e</tspan><tspan  y="0" class="i"> </tspan><tspan  y="0" class="i">H</tspan><tspan  y="0" class="i">u</tspan><tspan  y="0" class="i">b</tspan><tspan  y="0" class="i">
</tspan></text></svg>